<?xml version="1.0" encoding="UTF-8" standalone="no"?>
<!-- Created with Inkscape (http://www.inkscape.org/) -->

<svg
   xmlns:dc="http://purl.org/dc/elements/1.1/"
   xmlns:cc="http://creativecommons.org/ns#"
   xmlns:rdf="http://www.w3.org/1999/02/22-rdf-syntax-ns#"
   xmlns:svg="http://www.w3.org/2000/svg"
   xmlns="http://www.w3.org/2000/svg"
   xmlns:sodipodi="http://sodipodi.sourceforge.net/DTD/sodipodi-0.dtd"
   xmlns:inkscape="http://www.inkscape.org/namespaces/inkscape"
   id="svg2"
   version="1.1"
   inkscape:version="0.48.2 r9819"
   width="360"
   height="90"
   xml:space="preserve"
   sodipodi:docname="New_York_City_Department_of_Consumer_Affairs.ai"><metadata
     id="metadata8"><rdf:RDF><cc:Work
         rdf:about=""><dc:format>image/svg+xml</dc:format><dc:type
           rdf:resource="http://purl.org/dc/dcmitype/StillImage" /><dc:title></dc:title></cc:Work></rdf:RDF></metadata><defs
     id="defs6"><clipPath
       clipPathUnits="userSpaceOnUse"
       id="clipPath16"><path
         d="M 0,72 288,72 288,0 0,0 0,72 z"
         id="path18" /></clipPath></defs><sodipodi:namedview
     pagecolor="#ffffff"
     bordercolor="#666666"
     borderopacity="1"
     objecttolerance="10"
     gridtolerance="10"
     guidetolerance="10"
     inkscape:pageopacity="0"
     inkscape:pageshadow="2"
     inkscape:window-width="886"
     inkscape:window-height="625"
     id="namedview4"
     showgrid="false"
     inkscape:zoom="3.8593636"
     inkscape:cx="268.77651"
     inkscape:cy="45"
     inkscape:window-x="238"
     inkscape:window-y="100"
     inkscape:window-maximized="0"
     inkscape:current-layer="g10" /><g
     id="g10"
     inkscape:groupmode="layer"
     inkscape:label="New_York_City_Department_of_Consumer_Affairs"
     transform="matrix(1.25,0,0,-1.25,0,90)"><g
       clip-path="url(#clipPath16)"
       id="g14"><path
         inkscape:connector-curvature="0"
         id="path74"
         style="fill:#fbbc8b;fill-opacity:1;fill-rule:nonzero;stroke:none"
         d="m 132.736,57.417 -26.615,0 -7.984,-7.984 0,-26.616 7.984,-7.984 26.615,0 7.985,7.984 0,7.986 -2.663,2.666 -13.305,0 0,-2.666 -10.649,0 0,10.646 10.649,0 0,-2.63 13.305,0 2.663,2.63 0,7.984 -7.985,7.984 z" /><path
         inkscape:connector-curvature="0"
         id="path76"
         style="fill:#f68d42;fill-opacity:1;fill-rule:nonzero;stroke:none"
         d="m 52.892,57.417 -10.646,0 -2.662,-2.662 0,-10.645 -13.306,13.307 -10.646,0 -2.663,-2.662 0,-37.26 2.663,-2.662 10.646,0 2.661,2.662 0,10.646 13.307,-13.308 10.646,0 2.661,2.662 0,37.26 -2.661,2.662 z" /><path
         inkscape:connector-curvature="0"
         id="path78"
         style="fill:#f9a261;fill-opacity:1;fill-rule:nonzero;stroke:none"
         d="m 71.522,14.835 10.646,0 2.662,2.662 0,7.983 13.307,13.306 0,15.971 -2.66,2.66 -10.647,0 -2.662,-2.66 0,-5.324 -5.322,-5.323 -5.324,5.323 0,5.324 -2.661,2.66 -10.647,0 -2.661,-2.66 0,-15.971 13.308,-13.306 0,-7.983 2.661,-2.662 z" /><path
         inkscape:connector-curvature="0"
         id="path80"
         style="fill:#fcbd8b;fill-opacity:1;fill-rule:nonzero;stroke:none"
         d="m 140.713,55.152 -0.409,0 0,1.824 -0.629,-1.824 -0.361,0 -0.634,1.824 0,-1.824 -0.417,0 0,2.265 0.653,0 0.572,-1.623 0.579,1.623 0.646,0 0,-2.265 m -3.569,0 -0.454,0 0,1.885 -0.741,0 0,0.38 1.935,0 0,-0.38 -0.74,0 0,-1.885 z" /></g></g></svg>