<?xml version="1.0" encoding="UTF-8" standalone="no"?>
<!-- Created with Inkscape (http://www.inkscape.org/) -->

<svg
   xmlns:dc="http://purl.org/dc/elements/1.1/"
   xmlns:cc="http://creativecommons.org/ns#"
   xmlns:rdf="http://www.w3.org/1999/02/22-rdf-syntax-ns#"
   xmlns:svg="http://www.w3.org/2000/svg"
   xmlns="http://www.w3.org/2000/svg"
   xmlns:sodipodi="http://sodipodi.sourceforge.net/DTD/sodipodi-0.dtd"
   xmlns:inkscape="http://www.inkscape.org/namespaces/inkscape"
   width="240"
   height="240"
   id="svg7447"
   version="1.1"
   inkscape:version="0.48.2 r9819"
   sodipodi:docname="sprite.svg"
   inkscape:export-filename="/Users/tristen/devseed/reinventgreen/images/sprite.png"
   inkscape:export-xdpi="90"
   inkscape:export-ydpi="90">
  <defs
     id="defs7449">
    <clipPath
       clipPathUnits="userSpaceOnUse"
       id="clipPath16">
      <path
         inkscape:connector-curvature="0"
         d="M 0,72 288,72 288,0 0,0 0,72 z"
         id="path18" />
    </clipPath>
  </defs>
  <sodipodi:namedview
     id="base"
     pagecolor="#ffffff"
     bordercolor="#666666"
     borderopacity="1.0"
     inkscape:pageopacity="0.0"
     inkscape:pageshadow="2"
     inkscape:zoom="5.6568542"
     inkscape:cx="43.759969"
     inkscape:cy="220.13916"
     inkscape:document-units="px"
     inkscape:current-layer="layer1"
     showgrid="true"
     inkscape:window-width="1197"
     inkscape:window-height="693"
     inkscape:window-x="6"
     inkscape:window-y="13"
     inkscape:window-maximized="0">
    <inkscape:grid
       type="xygrid"
       id="grid8126"
       empspacing="5"
       visible="true"
       enabled="true"
       snapvisiblegridlinesonly="true" />
  </sodipodi:namedview>
  <metadata
     id="metadata7452">
    <rdf:RDF>
      <cc:Work
         rdf:about="">
        <dc:format>image/svg+xml</dc:format>
        <dc:type
           rdf:resource="http://purl.org/dc/dcmitype/StillImage" />
        <dc:title></dc:title>
      </cc:Work>
    </rdf:RDF>
  </metadata>
  <g
     inkscape:groupmode="layer"
     id="layer2"
     inkscape:label="Base"
     style="display:none">
    <rect
       style="color:#000000;fill:#f2f2f2;fill-opacity:1;fill-rule:nonzero;stroke:none;stroke-width:1;marker:none;visibility:visible;display:inline;overflow:visible;enable-background:accumulate"
       id="rect7964"
       width="240"
       height="240"
       x="0"
       y="0"
       rx="1"
       ry="1" />
  </g>
  <g
     inkscape:label="Sprite"
     inkscape:groupmode="layer"
     id="layer1"
     transform="translate(0,-812.36218)">
    <g
       style="fill:#ffffff;fill-opacity:1"
       id="g8138"
       clip-path="url(#clipPath16)"
       transform="matrix(0.58707496,0,0,-0.58707496,-7.6137749,846.07025)">
      <path
         d="m 132.736,57.417 -26.615,0 -7.984,-7.984 0,-26.616 7.984,-7.984 26.615,0 7.985,7.984 0,7.986 -2.663,2.666 -13.305,0 0,-2.666 -10.649,0 0,10.646 10.649,0 0,-2.63 13.305,0 2.663,2.63 0,7.984 -7.985,7.984 z"
         style="fill:#ffffff;fill-opacity:1;fill-rule:nonzero;stroke:none"
         id="path8140"
         inkscape:connector-curvature="0" />
      <path
         d="m 52.892,57.417 -10.646,0 -2.662,-2.662 0,-10.645 -13.306,13.307 -10.646,0 -2.663,-2.662 0,-37.26 2.663,-2.662 10.646,0 2.661,2.662 0,10.646 13.307,-13.308 10.646,0 2.661,2.662 0,37.26 -2.661,2.662 z"
         style="fill:#ffffff;fill-opacity:1;fill-rule:nonzero;stroke:none"
         id="path8142"
         inkscape:connector-curvature="0" />
      <path
         d="m 71.522,14.835 10.646,0 2.662,2.662 0,7.983 13.307,13.306 0,15.971 -2.66,2.66 -10.647,0 -2.662,-2.66 0,-5.324 -5.322,-5.323 -5.324,5.323 0,5.324 -2.661,2.66 -10.647,0 -2.661,-2.66 0,-15.971 13.308,-13.306 0,-7.983 2.661,-2.662 z"
         style="fill:#ffffff;fill-opacity:1;fill-rule:nonzero;stroke:none"
         id="path8144"
         inkscape:connector-curvature="0" />
      <path
         d="m 140.713,55.152 -0.409,0 0,1.824 -0.629,-1.824 -0.361,0 -0.634,1.824 0,-1.824 -0.417,0 0,2.265 0.653,0 0.572,-1.623 0.579,1.623 0.646,0 0,-2.265 m -3.569,0 -0.454,0 0,1.885 -0.741,0 0,0.38 1.935,0 0,-0.38 -0.74,0 0,-1.885 z"
         style="fill:#ffffff;fill-opacity:1;fill-rule:nonzero;stroke:none"
         id="path8146"
         inkscape:connector-curvature="0" />
    </g>
  </g>
</svg>
